<?xml version="1.0" encoding="UTF-8"?>
<!-- Created with Inkscape (http://www.inkscape.org/) -->
<svg width="287.95mm" height="147.75mm" version="1.1" viewBox="0 0 287.95 147.75" xmlns="http://www.w3.org/2000/svg" xmlns:cc="http://creativecommons.org/ns#" xmlns:dc="http://purl.org/dc/elements/1.1/" xmlns:rdf="http://www.w3.org/1999/02/22-rdf-syntax-ns#" xmlns:xlink="http://www.w3.org/1999/xlink">
 <defs>
  <linearGradient id="linearGradient1055" x1="86.368" x2="85.927" y1="115.76" y2="146.79" gradientTransform="translate(17.072 -32.072)" gradientUnits="userSpaceOnUse">
   <stop stop-color="#36332e" stop-opacity="0" offset="0"/>
   <stop stop-color="#b5871f" stop-opacity=".99608" offset="1"/>
  </linearGradient>
  <!-- <clipPath id="clipPath1171">
   <g transform="matrix(1 0 0 2.877 1.6036 -310.7)">
    <rect x="9.4212" y="115.19" width="188.43" height="32.607"/>
   </g>
  </clipPath> -->
 </defs>
 <metadata>
  <rdf:RDF>
   <cc:Work rdf:about="">
    <dc:format>image/svg+xml</dc:format>
    <dc:type rdf:resource="http://purl.org/dc/dcmitype/StillImage"/>
    <dc:title/>
   </cc:Work>
  </rdf:RDF>
 </metadata>
 <g transform="translate(-5.0685 -129)">
  <g transform="matrix(1.6404 0 0 1.6404 -22.161 88.89)">
   <g clip-path="url(#clipPath1171)">
    <g>
     <rect x="16.599" y="24.452" width="175.46" height="114.39" fill="#165db5"/>
     <path d="m179.1 101.19-11.192 0.0334-0.23386 10.089 11.342-0.71827z" fill="#4068a5"/>
     <path d="m179.02 110.6-11.192 0.0334-0.23386 10.089 11.526-0.46772z" fill="#c6b595"/>
     <path d="m169.54 118.97v-35.908l-5.0082-0.85045 0.18899-4.8192-7.087 0.0945v-1.5119l-3.4018-0.28348h-4.4412l-1.6064 0.37798-0.18899 1.8899-9.3549 0.18899-0.75595 23.057 19.371 0.56697-0.18899 20.033z" fill="#2f5794"/>
     <path d="m39.612 108.58v-29.955l3.3073-0.37798-0.47247-3.2128 8.6935-0.56696 8.032 0.94494-0.37798 3.2128 3.0238 0.66146-0.66146 5.5751 0.56696 1.0394-0.28348 31.372-22.395-0.47247z" fill="#6093cc"/>
    </g>
    <path d="m51.991 49.331 5.8586-1.2284 6.5201-0.37798h7.465l3.5908 0.56696v7.843l-4.2522-0.66146-7.843-0.18899-7.7485 0.47247-3.7798 0.75595z" fill="#00356d" fill-opacity=".96863"/>
    <g>
     <path d="m75.425 56.135-0.18899 60.665-23.718-0.56696 0.28348-59.72 3.7798-0.75595 7.7485-0.47247 7.843 0.18899z" fill="#2c73ae"/>
     <path d="m94.04 91.475-9.8274 0.47935-0.94494 27.323 11.906-0.11985z" fill="#6d7390"/>
     <path d="m74.764 84.294 4.3467-5.1027h1.4174l3.6853 5.3862 0.0945 32.222-10.179-0.0397z" fill="#536796"/>
     <path d="m112.84 115.76 0.28348-46.964-1.7009-0.28348-0.0945-3.8743-5.4807-0.75595v3.7798l-2.0789 0.09449-1.7009-0.09449-0.0945-3.9688-1.8899 0.18899v-1.2284h-2.0789l-0.09449 1.3229h-1.6064l-0.18899 3.3073-1.6064 0.56696 9.0714 27.12-0.28348 20.789z" fill="#d26327"/>
     <path d="m103.3 115.76-9.2604-0.66145 0.47248-47.247 9.0714 27.12z" fill="#ffee9b"/>
     <path d="m96.713 63.991 0.06682-5.312 0.35079-0.13364-0.05011-2.8564 1.3196 0.01669 0.10023-2.2217 0.55124-0.05011 0.06682-1.7205 2.94-0.06681 6.665 1.1693 0.10023 1.5034 0.73499 0.08352 0.0167 1.7874 1.2027 0.15034 0.21716 8.2018-5.1433-0.65914v3.7798l-2.0789 0.09449-1.7009-0.09449-0.0945-3.9688-1.8899 0.18899v-1.2284h-2.0789l-0.09449 1.3229z" fill="#f7de99"/>
     <path d="m59.63 48.038 0.11693-10.607h0.28397l-0.08352 10.591z" fill="#023d78"/>
    </g>
    <path d="m66.378 47.771 0.11693-11.058h0.4009l-0.08352 11.142z" fill="#013e78" fill-opacity=".99663"/>
    <path d="m66.445 36.245h0.45102v0.46772h-0.4009z" fill="#e4f2ff"/>
    <path d="m79.488 79.191 0.15305-18.224h0.3675l-0.10649 18.235z" fill="#3b5172"/>
    <g fill="#f54c09">
     <rect x="99.269" y="51.296" width=".43431" height=".4009"/>
     <rect x="102.18" y="51.229" width=".50113" height=".48443"/>
     <rect x="108.21" y="52.298" width=".51784" height=".51783"/>
    </g>
    <path d="m138.81 99.087 0.40091-24.722-2.3386-0.33409v-3.0736l-2.1382-0.46772v-3.3409l-2.4054-0.33409 0.0668-6.4813-2.94-0.66818-0.26727 11.693-5.2118 0.06682 0.0668 1.8709h-4.6104l-0.0668 1.8041-3.6081 0.13364v1.8041l-3.1404-3e-6 -0.4009 38.821 27.328-0.46773-0.73499-16.303" fill="#195f98"/>
    <path d="m129.45 59.665-6.6163 2.3523-0.0236 9.7093-5.8823 2.575 0.0236 0.89769 2.4091-0.09937 0.0668-1.8041h4.6104l-0.0668-1.8709 5.2118-0.06682z" fill="#dae7f8" fill-opacity=".9899"/>
    <path d="m114.59 75.813 1.1633-0.57995v1.8041l-1.3523-0.01931z" fill="#dae7f8"/>
    <path d="m129.45 59.665-0.16703-3.7334h-0.1754l-0.10022 3.8921z" fill="#343f4c"/>
    <g fill="#f54c09">
     <rect x="128.91" y="55.409" width=".51784" height=".51783"/>
     <rect x="129.31" y="59.18" width=".51784" height=".51783"/>
     <rect x="131.88" y="59.815" width=".51784" height=".51783"/>
     <rect x="125.57" y="60.446" width=".51784" height=".51783"/>
    </g>
    <g>
     <path transform="translate(16.933)" d="m112.52 59.664-0.26562 11.693c-0.85155 22.019-0.0434 24.686-0.2461 44.312l10.602-0.2793-0.73438-16.305 0.40039-24.721-2.3379-0.33398v-3.0742l-2.1387-0.46875v-3.3398l-2.4043-0.33398 0.0664-6.4824z" fill="#154f7f"/>
     <path d="m160.56 127.67 0.18899-24.663-2.1734-0.66146v-2.1734l-5.8586-0.56697-0.18899-2.0789-11.15-0.18899v2.4568l-20.316 0.75595 1e-5 28.726z" fill="#5b84bc"/>
     <rect x="150.64" y="75.129" width=".51784" height=".51783" fill="#f54c09"/>
     <rect x="136.57" y="70.533" width=".51784" height=".51783" fill="#fef3ee"/>
     <rect x="134.28" y="66.843" width=".51784" height=".51783" fill="#fef3ee"/>
     <rect x="16.671" y="82.516" width="175.46" height="32.741" fill="url(#linearGradient1055)"/>
     <path d="m154.23 75.695 0.61421-6.5201 2.8821-0.09449 0.18899-11.765s1.3759-0.35667 1.9844-0.51972v-5.1499l-2.0316-1.2284s3.9215-1.0394 8.1265-0.89769c4.205 0.14174 8.221 0.61421 8.221 0.94494-1.2284 0.89769-2.0316 1.1812-2.0316 1.1812l-0.0945 5.1972 2.0316 0.42522v36.711h-0.85045l-0.0472-24.521-4.0632-0.37798-14.08 0.56696z" fill="#2d6fb5"/>
     <path transform="matrix(1.021 0 0 1.0331 13.527 -1.5955)" d="m149.32 49.408c-4.205-0.14174-8.127 0.89844-8.127 0.89844l2.0312 1.2285c2.7876-0.02556 5.7601-0.10054 12.285 0 0 0 0.80283-0.28395 2.0312-1.1816 0-0.33073-4.0157-0.80357-8.2207-0.94531z" fill="#f4f4f7"/>
     <path d="m154.23 75.695 0.8505-6.0476 14.08-0.56696 4.0632 0.37798 0.0472 24.521h0.85045l2.6813 0.15355 0.0591 7.1107-7.465 0.0354 0.14175-18.214-5.0082-0.85045 0.18899-4.8192-7.087 0.0945v-1.5119z" fill="#5e8ccd"/>
    </g>
   </g>
  </g>
 </g>
</svg>
