<?xml version="1.0" encoding="UTF-8" standalone="no"?>
<svg
   xmlns:dc="http://purl.org/dc/elements/1.1/"
   xmlns:cc="http://creativecommons.org/ns#"
   xmlns:rdf="http://www.w3.org/1999/02/22-rdf-syntax-ns#"
   xmlns:svg="http://www.w3.org/2000/svg"
   xmlns="http://www.w3.org/2000/svg"
   xmlns:sodipodi="http://sodipodi.sourceforge.net/DTD/sodipodi-0.dtd"
   xmlns:inkscape="http://www.inkscape.org/namespaces/inkscape"
   width="100%"
   height="100%"
   version="1.1"
   viewBox="0 0 300 200"
   id="mplsSvg"
   sodipodi:docname="mpls.svg"
   inkscape:version="0.92.3 (2405546, 2018-03-11)">
  <sodipodi:namedview
     pagecolor="#ffffff"
     bordercolor="#666666"
     borderopacity="1"
     objecttolerance="10"
     gridtolerance="10"
     guidetolerance="10"
     inkscape:pageopacity="0"
     inkscape:pageshadow="2"
     inkscape:window-width="3840"
     inkscape:window-height="2049"
     id="namedview266"
     showgrid="false"
     fit-margin-bottom="0"
     fit-margin-top="0"
     fit-margin-left="0"
     fit-margin-right="0"
     inkscape:zoom="3.0304569"
     inkscape:cx="-47.248113"
     inkscape:cy="195.58546"
     inkscape:window-x="0"
     inkscape:window-y="55"
     inkscape:window-maximized="1"
     inkscape:current-layer="mplsSvg" />
  <defs
     id="defs173">
    <linearGradient
       id="linearGradient1055"
       x1="86.367996"
       x2="85.927002"
       y1="115.76"
       y2="146.78999"
       gradientTransform="translate(17.072,-32.072)"
       gradientUnits="userSpaceOnUse">
      <stop
         stop-color="#165db5"
         stop-opacity="0"
         offset="0"
         id="stop166" />
      <stop
         stop-color="#165db5"
         stop-opacity="1"
         offset=".95"
         id="stop168" />
    </linearGradient>
    <filter
       id="glow-white">
      <feDropShadow
         dx="0"
         dy="0"
         stdDeviation="0.5"
         flood-color="white" />
    </filter>
    <filter
       id="glow-red">
      <feDropShadow
         dx="0"
         dy="0"
         stdDeviation="0.1"
         flood-color="#ffaaaa" />
      <feDropShadow
         dx="0"
         dy="0"
         stdDeviation="0.1"
         flood-color="#ff3333" />
    </filter>
  </defs>
  <metadata
     id="metadata175">
    <rdf:RDF>
      <cc:Work
         rdf:about="">
        <dc:format>image/svg+xml</dc:format>
        <dc:type
           rdf:resource="http://purl.org/dc/dcmitype/StillImage" />
        <dc:title></dc:title>
      </cc:Work>
    </rdf:RDF>
  </metadata>
  <g
     id="base"
     transform="matrix(1.6323035,0,0,1.6323035,-25.694936,-39.08632)">
    <g id="building1">
        <path
            d="M 39.612,108.58 V 78.625 l 3.3073,-0.37798 -0.47247,-3.2128 8.6935,-0.56696 8.032,0.94494 -0.37798,3.2128 3.0238,0.66146 -0.66146,5.5751 0.56696,1.0394 -0.28348,31.372 -22.395,-0.47247 z"
            id="building1-1"
            style="fill:#6093cc" />
    </g>
    <g
       id="g187">
      <rect
         x="16.599001"
         y="24.452"
         width="175.46001"
         height="114.39"
         id="background"
         style="fill:#165db5" />
      <path
         d="m 179.1,101.19 -11.192,0.0334 -0.23386,10.089 11.342,-0.71827 z"
         id="path179"
         inkscape:connector-curvature="0"
         style="fill:#4068a5" />
      <path
         d="m 179.02,110.6 -11.192,0.0334 -0.23386,10.089 11.526,-0.46772 z"
         id="path181"
         inkscape:connector-curvature="0"
         style="fill:#c6b595" />
      <path
         d="M 169.54,118.97 V 83.062 l -5.0082,-0.85045 0.18899,-4.8192 -7.087,0.0945 v -1.5119 l -3.4018,-0.28348 h -4.4412 l -1.6064,0.37798 -0.18899,1.8899 -9.3549,0.18899 -0.75595,23.057 19.371,0.56697 -0.18899,20.033 z"
         id="path183"
         inkscape:connector-curvature="0"
         style="fill:#2f5794" />
      
    </g>
    <path
       d="m 51.991,49.331 5.8586,-1.2284 6.5201,-0.37798 h 7.465 l 3.5908,0.56696 v 7.843 l -4.2522,-0.66146 -7.843,-0.18899 -7.7485,0.47247 -3.7798,0.75595 z"
       id="path189"
       inkscape:connector-curvature="0"
       style="fill:#00356d;fill-opacity:0.96863002" />
    <g
       id="g205">
      <path
         d="m 75.425,56.135 -0.18899,60.665 -23.718,-0.56696 0.28348,-59.72 3.7798,-0.75595 7.7485,-0.47247 7.843,0.18899 z"
         id="path191"
         inkscape:connector-curvature="0"
         style="fill:#2c73ae" />
      <path
         d="m 94.04,91.475 -9.8274,0.47935 -0.94494,27.323 11.906,-0.11985 z"
         id="path193"
         inkscape:connector-curvature="0"
         style="fill:#6d7390" />
      <path
         d="m 74.764,84.294 4.3467,-5.1027 h 1.4174 l 3.6853,5.3862 0.0945,32.222 -10.179,-0.0397 z"
         id="path195"
         inkscape:connector-curvature="0"
         style="fill:#536796" />
      <path
         d="m 112.84,115.76 0.28348,-46.964 -1.7009,-0.28348 -0.0945,-3.8743 -5.4807,-0.75595 v 3.7798 l -2.0789,0.09449 -1.7009,-0.09449 -0.0945,-3.9688 -1.8899,0.18899 v -1.2284 h -2.0789 l -0.09449,1.3229 h -1.6064 l -0.18899,3.3073 -1.6064,0.56696 9.0714,27.12 -0.28348,20.789 z"
         id="path197"
         inkscape:connector-curvature="0"
         style="fill:#d26327" />
      <path
         d="m 103.3,115.76 -9.2604,-0.66145 0.47248,-47.247 9.0714,27.12 z"
         id="path199"
         inkscape:connector-curvature="0"
         style="fill:#ffee9b" />
      <path
         d="m 96.713,63.991 0.06682,-5.312 0.35079,-0.13364 -0.05011,-2.8564 1.3196,0.01669 0.10023,-2.2217 0.55124,-0.05011 0.06682,-1.7205 2.94,-0.06681 6.665,1.1693 0.10023,1.5034 0.73499,0.08352 0.0167,1.7874 1.2027,0.15034 0.21716,8.2018 -5.1433,-0.65914 v 3.7798 l -2.0789,0.09449 -1.7009,-0.09449 -0.0945,-3.9688 -1.8899,0.18899 v -1.2284 h -2.0789 l -0.09449,1.3229 z"
         id="path201"
         inkscape:connector-curvature="0"
         style="fill:#f7de99" />
      <path
         d="M 59.63,48.038 59.74693,37.431 H 60.0309 L 59.94738,48.022 Z"
         id="path203"
         inkscape:connector-curvature="0"
         style="fill:#023d78" />
    </g>
    <path
       d="m 66.378,47.771 0.11693,-11.058 h 0.4009 l -0.08352,11.142 z"
       id="path207"
       inkscape:connector-curvature="0"
       style="fill:#013e78;fill-opacity:0.99663002" />
    <path
       d="m 66.445,36.245 h 0.45102 v 0.46772 h -0.4009 z"
       id="path209"
       inkscape:connector-curvature="0"
       style="fill:#e4f2ff" />
    <path
       d="m 79.488,79.191 0.15305,-18.224 h 0.3675 l -0.10649,18.235 z"
       id="path211"
       inkscape:connector-curvature="0"
       style="fill:#3b5172" />
    <g
       id="WfLights"
       style="fill:#f54c09">
      <rect
         x="99.268997"
         y="51.296001"
         width="0.43430999"
         height="0.40090001"
         id="rect213" />
      <rect
         x="102.18"
         y="51.229"
         width="0.50112998"
         height="0.48442999"
         id="rect215" />
      <rect
         x="108.21"
         y="52.298"
         width="0.51784003"
         height="0.51783001"
         id="rect217" />
    </g>
    <path
       d="m 138.81,99.087 0.40091,-24.722 -2.3386,-0.33409 v -3.0736 l -2.1382,-0.46772 v -3.3409 l -2.4054,-0.33409 0.0668,-6.4813 -2.94,-0.66818 -0.26727,11.693 -5.2118,0.06682 0.0668,1.8709 h -4.6104 l -0.0668,1.8041 -3.6081,0.13364 v 1.8041 l -3.1404,-3e-6 -0.4009,38.821003 27.328,-0.46773 -0.73499,-16.303003"
       id="path221"
       inkscape:connector-curvature="0"
       style="fill:#195f98" />
    <path
       d="m 129.45,59.665 -6.6163,2.3523 -0.0236,9.7093 -5.8823,2.575 0.0236,0.89769 2.4091,-0.09937 0.0668,-1.8041 h 4.6104 l -0.0668,-1.8709 5.2118,-0.06682 z"
       id="path223"
       inkscape:connector-curvature="0"
       style="fill:#dae7f8;fill-opacity:0.9899" />
    <path
       d="m 114.59,75.813 1.1633,-0.57995 v 1.8041 l -1.3523,-0.01931 z"
       id="path225"
       inkscape:connector-curvature="0"
       style="fill:#dae7f8" />
    <path
       d="m 129.45,59.665 -0.16703,-3.7334 h -0.1754 l -0.10022,3.8921 z"
       id="centralAntennae"
       inkscape:connector-curvature="0"
       style="fill:#343f4c" />
    <g
       id="g237"
       style="fill:#f54c09">
      <rect
         x="128.91"
         y="55.409"
         width="0.51784003"
         height="0.51783001"
         id="rect229" />
      <rect
         x="129.31"
         y="59.18"
         width="0.51784003"
         height="0.51783001"
         id="rect231" />
      <rect
         x="131.88"
         y="59.814999"
         width="0.51784003"
         height="0.51783001"
         id="rect233" />
      <rect
         x="125.57"
         y="60.445999"
         width="0.51784003"
         height="0.51783001"
         id="rect235" />
    </g>
    <g
       id="g256">
      <path
         transform="translate(16.933)"
         d="m 112.52,59.664 -0.26562,11.693 c -0.85155,22.019 -0.0434,24.686 -0.2461,44.312 l 10.602,-0.2793 -0.73438,-16.305 0.40039,-24.721 -2.3379,-0.33398 v -3.0742 l -2.1387,-0.46875 v -3.3398 l -2.4043,-0.33398 0.0664,-6.4824 z"
         id="path239"
         inkscape:connector-curvature="0"
         style="fill:#154f7f" />
      <path
         d="m 160.56,127.67 0.18899,-24.663 -2.1734,-0.66146 v -2.1734 l -5.8586,-0.56697 -0.18899,-2.0789 -11.15,-0.18899 v 2.4568 l -20.316,0.75595 1e-5,28.726 z"
         id="path241"
         inkscape:connector-curvature="0"
         style="fill:#5b84bc" />
      <rect
         x="150.64"
         y="75.128998"
         width="0.51784003"
         height="0.51783001"
         id="rect243"
         style="fill:#f54c09" />
      <rect
         x="136.57001"
         y="70.532997"
         width="0.51784003"
         height="0.51783001"
         id="rect245"
         style="fill:#fef3ee" />
      <rect
         x="134.28"
         y="66.843002"
         width="0.51784003"
         height="0.51783001"
         id="rect247"
         style="fill:#fef3ee" />
      <path
         d="m 154.23,75.695 0.61421,-6.5201 2.8821,-0.09449 0.18899,-11.765 c 0,0 1.3759,-0.35667 1.9844,-0.51972 v -5.1499 l -2.0316,-1.2284 c 0,0 3.9215,-1.0394 8.1265,-0.89769 4.205,0.14174 8.221,0.61421 8.221,0.94494 -1.2284,0.89769 -2.0316,1.1812 -2.0316,1.1812 l -0.0945,5.1972 2.0316,0.42522 v 36.711 h -0.85045 l -0.0472,-24.521 -4.0632,-0.37798 -14.08,0.56696 z"
         id="path249"
         inkscape:connector-curvature="0"
         style="fill:#2d6fb5" />
      <path
         transform="matrix(1.021,0,0,1.0331,13.527,-1.5955)"
         d="m 149.32,49.408 c -4.205,-0.14174 -8.127,0.89844 -8.127,0.89844 l 2.0312,1.2285 c 2.7876,-0.02556 5.7601,-0.10054 12.285,0 0,0 0.80283,-0.28395 2.0312,-1.1816 0,-0.33073 -4.0157,-0.80357 -8.2207,-0.94531 z"
         id="path251"
         inkscape:connector-curvature="0"
         style="fill:#f4f4f7" />
      <path
         d="m 154.23,75.695 0.8505,-6.0476 14.08,-0.56696 4.0632,0.37798 0.0472,24.521 h 0.85045 l 2.6813,0.15355 0.0591,7.1107 -7.465,0.0354 0.14175,-18.214 -5.0082,-0.85045 0.18899,-4.8192 -7.087,0.0945 v -1.5119 z"
         id="path253"
         inkscape:connector-curvature="0"
         style="fill:#5e8ccd" />
      <rect
         id="bottom-gradient"
         x="16.671"
         y="82.515999"
         width="175.46001"
         height="32.741001"
         style="fill:url(#linearGradient1055)" />
    </g>
  </g>
</svg>
